<?xml version="1.0" encoding="utf-8"?>
<!-- Generator: Adobe Illustrator 18.1.1, SVG Export Plug-In . SVG Version: 6.00 Build 0)  -->
<svg version="1.1" id="Camada_1" xmlns="http://www.w3.org/2000/svg" xmlns:xlink="http://www.w3.org/1999/xlink" x="0px" y="0px"
	 viewBox="0 0 624.2 624.2" enable-background="new 0 0 624.2 624.2" xml:space="preserve">
<rect x="0.5" y="0.5" fill="#FFFFFF" stroke="#000000" stroke-miterlimit="10" width="623.2" height="623.2"/>
<g>
	<polygon fill="#DE1256" points="71.5,286.8 71.5,269 87,277.9 102.5,286.8 87,295.7 71.5,304.7 	"/>
	<polygon fill="#377EB8" points="102.5,269 102.5,251.1 117.9,260 133.4,269 117.9,277.9 102.5,286.8 	"/>
	<polygon fill="#377EB8" points="133.4,286.8 133.4,269 148.8,277.9 164.3,286.8 148.8,295.7 133.4,304.7 	"/>
	<polygon fill="#73BA24" points="133.4,322.5 133.4,304.7 148.8,313.6 164.3,322.5 148.8,331.4 133.4,340.4 	"/>
	<polygon fill="#DE1256" points="71.5,322.5 71.5,304.7 87,313.6 102.5,322.5 87,331.4 71.5,340.4 	"/>
	<polygon fill="#73BA24" points="102.5,340.4 102.5,322.5 117.9,331.4 133.4,340.4 117.9,349.3 102.5,358.2 	"/>
	<polygon fill="#970D1D" points="102.5,304.7 102.5,286.8 87,295.7 71.5,304.7 87,313.6 102.5,322.5 	"/>
	<polygon fill="#1A7628" points="164.3,304.7 164.3,286.8 148.8,295.7 133.4,304.7 148.8,313.6 164.3,322.5 	"/>
	<polygon fill="#1A7628" points="133.4,322.5 133.4,304.7 117.9,313.6 102.5,322.5 117.9,331.4 133.4,340.4 	"/>
	<polygon fill="#162C6D" points="102.5,269 102.5,251.1 87,260 71.5,269 87,277.9 102.5,286.8 	"/>
	<polygon fill="#162C6D" points="133.4,286.8 133.4,269 117.9,277.9 102.5,286.8 117.9,295.7 133.4,304.7 	"/>
	<polygon fill="#970D1D" points="102.5,340.4 102.5,322.5 87,331.4 71.5,340.4 87,349.3 102.5,358.2 	"/>
	<g>
		<g>
			<g>
				<g>
					<path fill="#2255A4" d="M190.6,321.5c0,12.6,5.8,19.1,16.3,19.1c5.6,0,12.3-2.8,15.9-5.2l1.5,4.1h12v-74.6l-15.2,2v21.4
						c-3.4-0.8-8.9-1.5-13.1-1.5c-12.1,0-17.3,6.9-17.3,19.1v15.6H190.6L190.6,321.5z M221.1,323.3c-2.3,1.9-6.3,4-9.7,4
						c-4,0-5.4-2.3-5.4-5.8V306c0-3.4,1.5-5.8,5.4-5.8c3.2,0,7.1,0.6,9.7,1.3V323.3z"/>
					<path fill="#2255A4" d="M283.9,319.2v-10.8c0-11.3-3.7-21.3-20.8-21.3s-22.2,9.5-22.2,20.6v12.1c0,12.7,6.4,21,23.1,21
						c7.2,0,14.7-1.5,19.3-3.3l-2.3-11.4c-4.5,1.4-10.9,2.3-15.6,2.3c-7,0-9.4-1.5-9.4-7.5v-1.5h27.8V319.2z M269.5,307.7h-13.4
						v-2.3c0-3.6,1.7-6.5,7-6.5c5.3,0,6.4,3,6.4,6.5V307.7L269.5,307.7z"/>
					<path fill="#2255A4" d="M321.1,266.3c-4.1-0.8-7.3-1.4-11.6-1.4c-12.4,0-17.4,5.9-17.4,16.5v7.7h-7.8v12.4h7.8v38h15.2v-38
						h11.1l1.1-12.4h-12.2v-6c0-3.4,0.4-5.4,5.2-5.4c1.8,0,4.6,0.4,6.8,0.7L321.1,266.3z"/>
					<path fill="#2255A4" d="M337.5,281.6v-16.2h-15.3v16.2H337.5L337.5,281.6z M337.5,339.5V288h-15.3v51.5H337.5z"/>
					<path fill="#2255A4" d="M390.3,339.5v-36c0-10-3.1-16.5-11.8-16.5c-5.9,0-14.2,1.9-20.5,5l-1.5-3.9H345v51.5h15.3v-34.2
						c3.3-1.8,8.4-3.7,11.1-3.7c2.6,0,3.7,1.4,3.7,3.7v34.1H390.3z"/>
					<path fill="#2255A4" d="M436.1,339.5v-32.9c0-14.3-3.9-19.7-21.8-19.7c-5.9,0-13.6,1.1-18.5,2.5l2,11.4c4.9-0.9,9.4-1.4,14-1.4
						c8.2,0,9.1,1.8,9.1,7.1v3.9h-11.1c-10.5,0-15.3,4.1-15.3,14.5c0,8.8,3.9,15.6,13.4,15.6c3.4,0,8.8-1.1,14.7-4.4l1.1,3.3h12.4
						V339.5z M421,327c-2.4,1.1-4.5,1.8-7.7,1.8c-3,0-4.1-1.2-4.1-4s1.3-3.7,4.5-3.7h7.3V327z"/>
					<rect x="439.8" y="303.5" fill="#2255A4" width="27.2" height="12.7"/>
					<g>
						<path fill="#2255A4" d="M507.3,324.2c0-10.3-1.1-13.4-15.8-16.7c-6.2-1.4-6.5-1.8-6.5-5c0-2.4,1.1-3.4,5.4-3.4
							c4,0,9.6,0.6,14.2,1.5l1.4-11.8c-4.5-1.2-11.7-1.7-15.6-1.7c-15.4,0-19.7,4.5-19.7,15.4c0,9.6,1.2,13,13.6,16.1
							c8.3,2,8.4,2.5,8.4,5.7c0,3.1-0.7,4.4-5.3,4.4c-5.7,0-11.4-1.1-15.5-2.4l-2.5,11.4c5.1,1.7,13.1,3.1,18.7,3.1
							C502.8,340.6,507.3,334.8,507.3,324.2z"/>
						<path fill="#2255A4" d="M552.7,319.2v-10.8c0-11.3-3.7-21.3-20.8-21.3s-22,9.5-22,20.5v12.1c0,12.7,6.4,21,23.1,21
							c7.2,0,14.7-1.5,19.3-3.3l-2.3-11.4c-4.5,1.4-10.9,2.3-15.6,2.3c-7,0-9.4-1.5-9.4-7.5v-1.5H552.7L552.7,319.2z M538.4,307.7
							H525v-2.3c0-3.6,1.7-6.5,7-6.5c5.3,0,6.4,3,6.4,6.5V307.7z"/>
					</g>
				</g>
			</g>
		</g>
		<g>
			<path fill="#4D4D4D" d="M200.5,352.7c1.3,0,2.7,0.1,4.3,0.4l0.1-1.6c-1.7-0.4-3.2-0.5-4.5-0.5c-1.3,0-2.3,0.2-3.1,0.5
				c-0.8,0.4-1.4,0.9-1.9,1.7c-0.4,0.8-0.7,1.7-0.9,2.7c-0.2,1-0.3,2.2-0.3,3.7s0.1,2.7,0.3,3.7c0.2,1,0.5,1.9,0.9,2.6
				c0.4,0.8,1.1,1.3,1.9,1.7c0.8,0.4,1.9,0.5,3.2,0.5c1.3,0,2.8-0.2,4.4-0.5l-0.1-1.6c-1.5,0.3-2.9,0.4-4,0.4s-2-0.1-2.6-0.4
				c-0.6-0.3-1-0.7-1.3-1.3c-0.3-0.6-0.5-1.3-0.6-2.1c-0.1-0.8-0.2-1.8-0.2-3c0-2.5,0.3-4.3,0.9-5.4
				C197.6,353.2,198.8,352.7,200.5,352.7z"/>
			<path fill="#4D4D4D" d="M216.7,355.7c-3.3,0-5,2.1-5,6.3c0,2.1,0.4,3.7,1.1,4.7c0.7,1,1.9,1.5,3.7,1.5c1.3,0,2.9-0.1,4.7-0.4
				l0-1.4l-0.7,0.1c-1.2,0.1-2.4,0.1-3.6,0.1c-1.2,0-2-0.3-2.5-1c-0.5-0.6-0.7-1.6-0.7-3h7.9l0.1-1.4c0-1.9-0.4-3.4-1.2-4.3
				C219.5,356.1,218.3,355.7,216.7,355.7z M213.5,361.2c0-1.4,0.3-2.4,0.8-3.1c0.5-0.6,1.3-1,2.4-1s1.8,0.3,2.3,0.9
				c0.5,0.6,0.7,1.6,0.7,3.1H213.5z"/>
			<path fill="#4D4D4D" d="M230.9,355.9h-1.8v12h1.8v-8.8l0.6-0.3c0.4-0.2,0.9-0.4,1.7-0.7c0.7-0.3,1.4-0.5,2.1-0.6v-1.8
				c-1.5,0.3-3,0.9-4.4,1.9V355.9z"/>
			<path fill="#4D4D4D" d="M246.4,366.6c-0.8,0-1.2-0.2-1.4-0.6c-0.2-0.4-0.3-1.3-0.3-2.7v-5.7h3.8v-1.6h-3.8v-3.7h-1.8v3.7h-1.7
				v1.6h1.7v6.3c0,1.7,0.2,2.9,0.7,3.5c0.5,0.6,1.3,0.9,2.6,0.9c0.6,0,1.4-0.1,2.4-0.3l-0.1-1.5L246.4,366.6z"/>
			<rect x="255.5" y="355.9" fill="#4D4D4D" width="1.8" height="12"/>
			<rect x="255.5" y="351.1" fill="#4D4D4D" width="1.8" height="2.1"/>
			<path fill="#4D4D4D" d="M266.8,351.4c-0.5,0.6-0.7,1.8-0.7,3.5v1.1h-1.5v1.6h1.5v10.4h1.8v-10.4h3.5v-1.6h-3.5v-1.1
				c0-1.1,0.1-1.8,0.4-2.2s0.7-0.6,1.2-0.6c0.6,0,1.3,0,2.2,0l0-1.5l-2.4-0.2C268.1,350.4,267.2,350.7,266.8,351.4z"/>
			<rect x="278.3" y="351.1" fill="#4D4D4D" width="1.8" height="2.1"/>
			<rect x="278.3" y="355.9" fill="#4D4D4D" width="1.8" height="12"/>
			<path fill="#4D4D4D" d="M293.2,366.5c-1.4,0-2.4-0.3-2.8-1c-0.5-0.7-0.7-1.9-0.7-3.7s0.2-3,0.7-3.6c0.5-0.6,1.4-1,2.8-1
				c0.6,0,1.6,0.1,2.8,0.2l0.1-1.5l-0.6-0.1c-1.3-0.2-2.2-0.3-2.7-0.3c-1.8,0-3.1,0.5-3.8,1.4c-0.8,0.9-1.2,2.5-1.2,4.8
				c0,2.3,0.4,3.9,1.1,4.9c0.7,1,2,1.4,3.9,1.4c0.7,0,1.8-0.1,3.3-0.3l-0.1-1.5L293.2,366.5z"/>
			<path fill="#4D4D4D" d="M312.1,365.7v-6.1c0-1.3-0.3-2.3-0.9-2.9c-0.6-0.6-1.6-0.9-3-0.9c-1.4,0-2.9,0.2-4.7,0.5l0.1,1.4l0.7-0.1
				c1.4-0.2,2.7-0.2,4-0.2c0.6,0,1.1,0.2,1.4,0.5c0.4,0.4,0.5,0.9,0.5,1.8v1l-3.8,0.4c-1.3,0.1-2.2,0.5-2.8,1
				c-0.6,0.6-0.9,1.4-0.9,2.6c0,1.2,0.3,2.1,0.9,2.7s1.4,0.9,2.5,0.9c1.4,0,2.9-0.3,4.3-1c0.6,0.6,1.6,1,2.9,1l0.1-1.4
				C312.6,366.6,312.1,366.3,312.1,365.7z M310.3,365.9l-0.6,0.2c-1.1,0.4-2.1,0.6-3.2,0.6c-1.2,0-1.8-0.7-1.8-2.2
				c0-0.7,0.2-1.2,0.5-1.5c0.3-0.4,0.8-0.6,1.6-0.6l3.6-0.3V365.9z"/>
			<path fill="#4D4D4D" d="M324.9,368.2c0.7,0,1.8-0.1,3.3-0.3l-0.1-1.5l-2.8,0.2c-1.4,0-2.4-0.3-2.8-1s-0.7-1.9-0.7-3.7
				s0.2-3,0.7-3.6c0.5-0.6,1.4-1,2.8-1c0.6,0,1.6,0.1,2.8,0.2l0.1-1.5l-0.6-0.1c-1.3-0.2-2.2-0.3-2.7-0.3c-1.8,0-3.1,0.5-3.8,1.4
				c-0.8,0.9-1.2,2.5-1.2,4.6c0,2.2,0.3,3.7,0.8,4.7c0.6,1,1.5,1.5,2.9,1.7v2.1h1c0.7,0,1.1,0.3,1.1,0.8c0,0.6-0.4,0.9-1.1,0.9
				c-0.4,0-1,0-1.6-0.1L323,373l0.3,0c0.5,0.1,1.1,0.1,1.8,0.1c1.5,0,2.2-0.7,2.2-2.2c0-0.7-0.2-1.2-0.6-1.5c-0.4-0.3-1.1-0.4-2-0.4
				v-0.9H324.9z"/>
			<path fill="#4D4D4D" d="M340.2,355.7c-1.9,0-3.2,0.5-4,1.5c-0.8,1-1.2,2.6-1.2,4.8s0.4,3.8,1.1,4.8c0.7,1,2.1,1.5,4,1.5
				c2,0,3.3-0.5,4-1.5c0.7-1,1.1-2.6,1.1-4.8s-0.4-3.8-1.2-4.8C343.4,356.2,342,355.7,340.2,355.7z M342.8,365.5
				c-0.4,0.7-1.3,1-2.7,1s-2.2-0.4-2.7-1.1c-0.4-0.7-0.6-1.9-0.6-3.7s0.2-3,0.7-3.6c0.5-0.7,1.3-1,2.6-1s2.1,0.3,2.6,1
				c0.5,0.7,0.7,1.9,0.7,3.6C343.5,363.6,343.2,364.9,342.8,365.5z"/>
			<path fill="#4D4D4D" d="M337.1,352.8c0.6-0.5,1.1-0.7,1.5-0.7c0.2,0,0.7,0.2,1.5,0.6c0.8,0.4,1.4,0.6,1.7,0.6
				c0.6,0,1.3-0.4,2.1-1.2l-0.4-1.2l-0.3,0.2c-0.6,0.5-1.1,0.7-1.4,0.7c-0.2,0-0.7-0.2-1.5-0.6c-0.8-0.4-1.4-0.6-1.8-0.6
				c-0.7,0-1.4,0.4-2.2,1.2l0.4,1.2L337.1,352.8z"/>
			<path fill="#4D4D4D" d="M357.5,355.7c-3.3,0-5,2.1-5,6.3c0,2.1,0.4,3.7,1.1,4.7c0.7,1,1.9,1.5,3.7,1.5c1.3,0,2.9-0.1,4.7-0.4
				l0-1.4l-0.7,0.1c-1.2,0.1-2.4,0.1-3.6,0.1c-1.2,0-2-0.3-2.5-1s-0.7-1.6-0.7-3h7.9l0.1-1.4c0-1.9-0.4-3.4-1.2-4.3
				C360.3,356.1,359.1,355.7,357.5,355.7z M354.3,361.2c0-1.4,0.3-2.4,0.8-3.1c0.5-0.6,1.3-1,2.4-1s1.8,0.3,2.3,0.9
				c0.5,0.6,0.7,1.6,0.7,3.1H354.3z"/>
			<path fill="#4D4D4D" d="M374.4,361c-1.4-0.2-2.3-0.5-2.7-0.7c-0.4-0.2-0.6-0.6-0.6-1.2c0-1.2,0.9-1.8,2.6-1.8
				c1,0,2.4,0.1,4.2,0.4l0-1.5l-0.7-0.1c-1.5-0.2-2.7-0.3-3.7-0.3c-1.2,0-2.3,0.3-3.1,0.8s-1.2,1.4-1.2,2.6c0,1.2,0.3,2,0.9,2.4
				c0.6,0.4,1.6,0.8,3,1c1.4,0.2,2.3,0.5,2.7,0.7c0.4,0.2,0.6,0.7,0.6,1.4c0,0.7-0.2,1.2-0.7,1.5c-0.5,0.3-1.2,0.4-2.1,0.4
				c-0.9,0-2.3-0.1-4.1-0.4l-0.1,1.6l0.7,0.1c1.3,0.2,2.5,0.3,3.5,0.3c1.5,0,2.7-0.3,3.5-0.9c0.8-0.6,1.2-1.5,1.2-2.7
				c0-1.2-0.3-2.1-0.9-2.5C376.9,361.6,375.9,361.3,374.4,361z"/>
			<path fill="#4D4D4D" d="M400.5,355.7c-3.3,0-5,2.1-5,6.3c0,2.1,0.4,3.7,1.1,4.7c0.7,1,1.9,1.5,3.7,1.5c1.3,0,2.9-0.1,4.7-0.4
				l0-1.4l-0.7,0.1c-1.2,0.1-2.4,0.1-3.6,0.1c-1.2,0-2-0.3-2.5-1c-0.5-0.6-0.7-1.6-0.7-3h7.9l0.1-1.4c0-1.9-0.4-3.4-1.2-4.3
				S402.1,355.7,400.5,355.7z M397.3,361.2c0-1.4,0.3-2.4,0.8-3.1c0.5-0.6,1.3-1,2.4-1c1.1,0,1.8,0.3,2.3,0.9
				c0.5,0.6,0.7,1.6,0.7,3.1H397.3z"/>
			<path fill="#4D4D4D" d="M429,352.7c1.3,0,2.7,0.1,4.3,0.4l0.1-1.6c-1.7-0.4-3.2-0.5-4.5-0.5c-1.3,0-2.3,0.2-3.1,0.5
				c-0.8,0.4-1.4,0.9-1.9,1.7c-0.4,0.8-0.7,1.7-0.9,2.7c-0.2,1-0.3,2.2-0.3,3.7s0.1,2.7,0.3,3.7c0.2,1,0.5,1.9,0.9,2.6
				c0.4,0.8,1.1,1.3,1.9,1.7c0.8,0.4,1.9,0.5,3.2,0.5c1.3,0,2.8-0.2,4.4-0.5l-0.1-1.6c-1.5,0.3-2.9,0.4-4,0.4c-1.1,0-2-0.1-2.6-0.4
				c-0.6-0.3-1-0.7-1.3-1.3c-0.3-0.6-0.5-1.3-0.6-2.1c-0.1-0.8-0.2-1.8-0.2-3c0-2.5,0.3-4.3,0.9-5.4
				C426,353.2,427.2,352.7,429,352.7z"/>
			<path fill="#4D4D4D" d="M449.3,365.7v-6.1c0-1.3-0.3-2.3-0.9-2.9c-0.6-0.6-1.6-0.9-3-0.9s-2.9,0.2-4.7,0.5l0.1,1.4l0.7-0.1
				c1.4-0.2,2.7-0.2,4-0.2c0.6,0,1.1,0.2,1.4,0.5c0.4,0.4,0.5,0.9,0.5,1.8v1l-3.8,0.4c-1.3,0.1-2.2,0.5-2.8,1
				c-0.6,0.6-0.9,1.4-0.9,2.6c0,1.2,0.3,2.1,0.9,2.7c0.6,0.6,1.4,0.9,2.5,0.9c1.4,0,2.9-0.3,4.3-1c0.6,0.6,1.6,1,2.9,1l0.1-1.4
				C449.9,366.6,449.4,366.3,449.3,365.7z M447.5,365.9l-0.6,0.2c-1.1,0.4-2.1,0.6-3.2,0.6c-1.2,0-1.8-0.7-1.8-2.2
				c0-0.7,0.2-1.2,0.5-1.5c0.3-0.4,0.8-0.6,1.6-0.6l3.6-0.3V365.9z"/>
			<path fill="#4D4D4D" d="M459.5,355.9h-1.8v12h1.8v-8.8l0.6-0.3c0.4-0.2,0.9-0.4,1.7-0.7c0.7-0.3,1.4-0.5,2.1-0.6v-1.8
				c-1.5,0.3-3,0.9-4.4,1.9V355.9z"/>
			<path fill="#4D4D4D" d="M472.6,355.9h-1.8v12h1.8v-8.8l0.6-0.3c0.4-0.2,0.9-0.4,1.7-0.7c0.7-0.3,1.4-0.5,2.1-0.6v-1.8
				c-1.5,0.3-3,0.9-4.4,1.9V355.9z"/>
			<path fill="#4D4D4D" d="M488.2,355.7c-3.3,0-5,2.1-5,6.3c0,2.1,0.4,3.7,1.1,4.7c0.7,1,1.9,1.5,3.7,1.5c1.3,0,2.9-0.1,4.7-0.4
				l0-1.4l-0.7,0.1c-1.2,0.1-2.4,0.1-3.6,0.1c-1.2,0-2-0.3-2.5-1s-0.7-1.6-0.7-3h7.9l0.1-1.4c0-1.9-0.4-3.4-1.2-4.3
				S489.8,355.7,488.2,355.7z M484.9,361.2c0-1.4,0.3-2.4,0.8-3.1c0.5-0.6,1.3-1,2.4-1c1.1,0,1.8,0.3,2.3,0.9
				c0.5,0.6,0.7,1.6,0.7,3.1H484.9z"/>
			<rect x="500.6" y="355.9" fill="#4D4D4D" width="1.8" height="12"/>
			<rect x="500.6" y="351.1" fill="#4D4D4D" width="1.8" height="2.1"/>
			<path fill="#4D4D4D" d="M512.4,355.9h-1.8v12h1.8v-8.8l0.6-0.3c0.4-0.2,0.9-0.4,1.7-0.7c0.7-0.3,1.4-0.5,2.1-0.6v-1.8
				c-1.5,0.3-3,0.9-4.4,1.9V355.9z"/>
			<path fill="#4D4D4D" d="M532.2,365.7v-6.1c0-1.3-0.3-2.3-0.9-2.9c-0.6-0.6-1.6-0.9-3-0.9s-2.9,0.2-4.7,0.5l0.1,1.4l0.7-0.1
				c1.4-0.2,2.7-0.2,4-0.2c0.6,0,1.1,0.2,1.4,0.5c0.4,0.4,0.5,0.9,0.5,1.8v1l-3.8,0.4c-1.3,0.1-2.2,0.5-2.8,1
				c-0.6,0.6-0.9,1.4-0.9,2.6c0,1.2,0.3,2.1,0.9,2.7c0.6,0.6,1.4,0.9,2.5,0.9c1.4,0,2.9-0.3,4.3-1c0.6,0.6,1.6,1,2.9,1l0.1-1.4
				C532.8,366.6,532.3,366.3,532.2,365.7z M530.4,365.9l-0.6,0.2c-1.1,0.4-2.1,0.6-3.2,0.6c-1.2,0-1.8-0.7-1.8-2.2
				c0-0.7,0.2-1.2,0.5-1.5c0.3-0.4,0.8-0.6,1.6-0.6l3.6-0.3V365.9z"/>
			<path fill="#4D4D4D" d="M548.1,362.1c-0.6-0.4-1.6-0.8-3-1c-1.4-0.2-2.3-0.5-2.7-0.7c-0.4-0.2-0.6-0.6-0.6-1.2
				c0-1.2,0.9-1.8,2.6-1.8c1,0,2.4,0.1,4.2,0.4l0-1.5l-0.7-0.1c-1.5-0.2-2.7-0.3-3.7-0.3c-1.2,0-2.3,0.3-3.1,0.8
				c-0.8,0.6-1.2,1.4-1.2,2.6c0,1.2,0.3,2,0.9,2.4c0.6,0.4,1.6,0.8,3,1c1.4,0.2,2.3,0.5,2.7,0.7c0.4,0.2,0.6,0.7,0.6,1.4
				c0,0.7-0.2,1.2-0.7,1.5c-0.5,0.3-1.2,0.4-2.1,0.4c-0.9,0-2.3-0.1-4.1-0.4l-0.1,1.6l0.7,0.1c1.3,0.2,2.5,0.3,3.5,0.3
				c1.5,0,2.7-0.3,3.5-0.9s1.2-1.5,1.2-2.7C549,363.3,548.7,362.5,548.1,362.1z"/>
		</g>
	</g>
</g>
</svg>
