<?xml version="1.0" encoding="UTF-8" standalone="no"?>
<!-- Created with Inkscape (http://www.inkscape.org/) -->

<svg
   xmlns:dc="http://purl.org/dc/elements/1.1/"
   xmlns:cc="http://creativecommons.org/ns#"
   xmlns:rdf="http://www.w3.org/1999/02/22-rdf-syntax-ns#"
   xmlns:svg="http://www.w3.org/2000/svg"
   xmlns="http://www.w3.org/2000/svg"
   xmlns:xlink="http://www.w3.org/1999/xlink"
   xmlns:sodipodi="http://sodipodi.sourceforge.net/DTD/sodipodi-0.dtd"
   xmlns:inkscape="http://www.inkscape.org/namespaces/inkscape"
   width="700"
   height="200"
   id="svg2"
   version="1.1"
   inkscape:version="0.91 r"
   sodipodi:docname="logo_cti_completa.svg"
   inkscape:export-filename="D:\Users\tiagohenrique\Desktop\logo_cti.png"
   inkscape:export-xdpi="90"
   inkscape:export-ydpi="90">
  <defs
     id="defs4">
    <linearGradient
       inkscape:collect="always"
       id="linearGradient3046">
      <stop
         style="stop-color:#333333;stop-opacity:1;"
         offset="0"
         id="stop3048" />
      <stop
         style="stop-color:#333333;stop-opacity:0;"
         offset="1"
         id="stop3050" />
    </linearGradient>
    <linearGradient
       inkscape:collect="always"
       xlink:href="#linearGradient3046"
       id="linearGradient3052"
       x1="58.44165"
       y1="916.0376"
       x2="18.44165"
       y2="871.0376"
       gradientUnits="userSpaceOnUse" />
  </defs>
  <sodipodi:namedview
     id="base"
     pagecolor="#ffffff"
     bordercolor="#666666"
     borderopacity="1.0"
     inkscape:pageopacity="0.0"
     inkscape:pageshadow="2"
     inkscape:zoom="1.3742857"
     inkscape:cx="427.88905"
     inkscape:cy="100"
     inkscape:document-units="px"
     inkscape:current-layer="layer1"
     showgrid="false"
     showguides="false"
     inkscape:guide-bbox="true"
     inkscape:snap-bbox="true"
     inkscape:window-width="1440"
     inkscape:window-height="847"
     inkscape:window-x="-8"
     inkscape:window-y="-8"
     inkscape:window-maximized="1">
    <inkscape:grid
       type="xygrid"
       id="grid2985"
       empspacing="5"
       visible="true"
       enabled="true"
       snapvisiblegridlinesonly="true" />
    <sodipodi:guide
       orientation="1,0"
       position="20,140"
       id="guide2987" />
    <sodipodi:guide
       orientation="0,1"
       position="30,180"
       id="guide2989" />
    <sodipodi:guide
       orientation="0,1"
       position="30,20"
       id="guide2991" />
    <sodipodi:guide
       orientation="1,0"
       position="470,180"
       id="guide2995" />
    <sodipodi:guide
       orientation="-0.70710678,0.70710678"
       position="65,180"
       id="guide2997" />
    <sodipodi:guide
       orientation="0.70710678,0.70710678"
       position="20,60"
       id="guide2999" />
    <sodipodi:guide
       orientation="0.70710678,0.70710678"
       position="170,146"
       id="guide3001" />
    <sodipodi:guide
       orientation="-0.70710678,0.70710678"
       position="180,60"
       id="guide3003" />
    <sodipodi:guide
       orientation="1,0"
       position="180,140"
       id="guide3005" />
    <sodipodi:guide
       orientation="1,0"
       position="61,123"
       id="guide3009" />
    <sodipodi:guide
       orientation="0,1"
       position="30,140"
       id="guide3011" />
    <sodipodi:guide
       orientation="-0.70710678,0.70710678"
       position="155,165"
       id="guide3013" />
    <sodipodi:guide
       orientation="-0.70710678,0.70710678"
       position="85,20"
       id="guide3015" />
    <sodipodi:guide
       orientation="0,1"
       position="71,59"
       id="guide3017" />
    <sodipodi:guide
       orientation="-0.70710678,0.70710678"
       position="135,85"
       id="guide3021" />
    <sodipodi:guide
       orientation="-0.70710678,0.70710678"
       position="170,150"
       id="guide3023" />
    <sodipodi:guide
       orientation="1,0"
       position="140,150"
       id="guide3041" />
    <sodipodi:guide
       orientation="1,0"
       position="160,164"
       id="guide3043" />
    <sodipodi:guide
       orientation="1,0"
       position="150,120"
       id="guide3045" />
    <sodipodi:guide
       orientation="-0.70710678,0.70710678"
       position="150,120"
       id="guide3047" />
    <sodipodi:guide
       orientation="0,1"
       position="165,135"
       id="guide3049" />
    <sodipodi:guide
       orientation="0,1"
       position="70,155"
       id="guide3051" />
    <sodipodi:guide
       orientation="-0.70710678,0.70710678"
       position="50,125"
       id="guide3053" />
    <sodipodi:guide
       orientation="0.70710678,0.70710678"
       position="85,59"
       id="guide3055" />
    <sodipodi:guide
       orientation="-0.70710678,0.70710678"
       position="165,130"
       id="guide3057" />
    <sodipodi:guide
       orientation="1,0"
       position="155,115"
       id="guide3059" />
    <sodipodi:guide
       orientation="-0.70710678,0.70710678"
       position="160,80"
       id="guide3061" />
    <sodipodi:guide
       orientation="-0.70710678,0.70710678"
       position="55,115"
       id="guide3067" />
    <sodipodi:guide
       orientation="1,0"
       position="75,140"
       id="guide3069" />
    <sodipodi:guide
       orientation="0.70710678,0.70710678"
       position="55,75"
       id="guide3071" />
    <sodipodi:guide
       orientation="0,1"
       position="80,65"
       id="guide3073" />
    <sodipodi:guide
       orientation="-0.70710678,0.70710678"
       position="165,130"
       id="guide3075" />
    <sodipodi:guide
       orientation="-0.70710678,0.70710678"
       position="142.5,130"
       id="guide3077" />
    <sodipodi:guide
       orientation="1,0"
       position="135,90"
       id="guide3079" />
    <sodipodi:guide
       orientation="-0.70710678,0.70710678"
       position="158,162"
       id="guide3081" />
    <sodipodi:guide
       orientation="0,1"
       position="80,145"
       id="guide3083" />
    <sodipodi:guide
       orientation="-0.70710678,0.70710678"
       position="20,140"
       id="guide3906" />
    <sodipodi:guide
       orientation="0.70710678,0.70710678"
       position="25,60"
       id="guide3910" />
    <sodipodi:guide
       orientation="-0.70710678,0.70710678"
       position="180,65"
       id="guide3912" />
    <sodipodi:guide
       orientation="0.70710678,0.70710678"
       position="156,160"
       id="guide3914" />
    <sodipodi:guide
       orientation="-0.70710678,0.70710678"
       position="147.5,90"
       id="guide3916" />
    <sodipodi:guide
       orientation="0,1"
       position="165,130"
       id="guide3918" />
    <sodipodi:guide
       orientation="0.70710678,0.70710678"
       position="140,122.5"
       id="guide3031" />
    <sodipodi:guide
       orientation="-0.70710678,0.70710678"
       position="142,114"
       id="guide3046" />
    <sodipodi:guide
       orientation="-0.70710678,0.70710678"
       position="140,160"
       id="guide3048" />
    <sodipodi:guide
       orientation="0,1"
       position="165,115"
       id="guide3117" />
    <sodipodi:guide
       orientation="-0.70710678,0.70710678"
       position="150,107"
       id="guide3119" />
    <sodipodi:guide
       orientation="1,0"
       position="52,108"
       id="guide3050" />
    <sodipodi:guide
       orientation="0,1"
       position="80,65"
       id="guide3044" />
  </sodipodi:namedview>
  <metadata
     id="metadata7">
    <rdf:RDF>
      <cc:Work
         rdf:about="">
        <dc:format>image/svg+xml</dc:format>
        <dc:type
           rdf:resource="http://purl.org/dc/dcmitype/StillImage" />
        <dc:title></dc:title>
      </cc:Work>
    </rdf:RDF>
  </metadata>
  <g
     inkscape:label="Camada 1"
     inkscape:groupmode="layer"
     id="layer1"
     transform="translate(0,-852.36218)">
    <g
       id="g4320">
      <g
         id="g4248">
        <path
           style="fill:#333333;fill-opacity:1;stroke:none;stroke-width:1px;stroke-linecap:butt;stroke-linejoin:miter;stroke-opacity:1"
           d="m 137.55835,868.68676 -71,0 -45,45 0,70 45,45.00004 20,0 65.23328,-65.23332 -0.23328,-22.26672 12.9,-13 47.1,0.5 0,100.00004 30,0 0,-100.00004 40,0 0,-20 -105,0 -30,30 0,22.5 L 110,997.36218 l -35,0 -23,-23 -0.44165,-50.67542 30,-30 55,0 13,-13 z"
           id="path3039"
           inkscape:connector-curvature="0"
           sodipodi:nodetypes="cccccccccccccccccccccccccc" />
        <path
           sodipodi:nodetypes="cccccccc"
           inkscape:connector-curvature="0"
           id="path3065"
           d="m 161.55835,946.18676 0,22.5 -60,60.00004 35,0 45,-45.00004 0,-45 -12.5,0 z"
           style="fill:#004b82;fill-opacity:1;stroke:none;stroke-width:1px;stroke-linecap:butt;stroke-linejoin:miter;stroke-opacity:1" />
        <path
           sodipodi:nodetypes="ccccccccccc"
           inkscape:connector-curvature="0"
           id="path3085"
           d="M 84.05835,903.68676 61,926.36218 l 0,43 18,18 26,0 31.55835,-30.67542 0,-23 33,-33 -12,-12 -16,15 z"
           style="fill:#004b82;fill-opacity:1;stroke:none;stroke-width:1px;stroke-linecap:butt;stroke-linejoin:miter;stroke-opacity:1" />
        <path
           sodipodi:nodetypes="ccccc"
           inkscape:connector-curvature="0"
           id="path3040"
           d="m 291.55835,938.68676 0,90.00004 30,0 0,-90.00004 z"
           style="fill:#333333;fill-opacity:1;stroke:none;stroke-width:1px;stroke-linecap:butt;stroke-linejoin:miter;stroke-opacity:1" />
        <path
           sodipodi:nodetypes="ccccc"
           inkscape:connector-curvature="0"
           id="path3044"
           d="m 321.55835,908.68676 -30,0 0,20 30,0 z"
           style="fill:#004b82;fill-opacity:1;stroke:none;stroke-width:1px;stroke-linecap:butt;stroke-linejoin:miter;stroke-opacity:1" />
        <g
           id="text3050"
           style="font-style:normal;font-variant:normal;font-weight:bold;font-stretch:normal;font-size:20px;line-height:125%;font-family:Arial;-inkscape-font-specification:'Arial Bold';letter-spacing:0px;word-spacing:0px;fill:#004b82;fill-opacity:1;stroke:none">
          <path
             id="path4260"
             style="font-style:normal;font-variant:normal;font-weight:900;font-stretch:normal;font-size:37.5px;line-height:125%;font-family:'Arial Black';-inkscape-font-specification:'Arial Black, Heavy';text-align:start;writing-mode:lr-tb;baseline-shift:super;text-anchor:start;fill:#004b82;fill-opacity:1;stroke:none"
             d="m 351.40259,923.92773 7.26928,2.19727 q -0.73242,3.05786 -2.30712,5.10864 -1.57471,2.05078 -3.91846,3.09448 -2.32544,1.04371 -5.93262,1.04371 -4.37622,0 -7.15942,-1.26343 -2.76489,-1.28174 -4.77905,-4.48609 -2.01416,-3.20434 -2.01416,-8.20312 0,-6.66504 3.53393,-10.2356 3.55225,-3.58886 10.03418,-3.58886 5.07202,0 7.96509,2.05078 2.91138,2.05078 4.32129,6.29883 l -7.32422,1.62963 q -0.38452,-1.2268 -0.80567,-1.79443 -0.6958,-0.95215 -1.70288,-1.46484 -1.00708,-0.5127 -2.25219,-0.5127 -2.81983,0 -4.32129,2.27051 -1.13526,1.68457 -1.13526,5.29175 0,4.46777 1.35498,6.13403 1.35498,1.64795 3.8086,1.64795 2.38037,0 3.58886,-1.33667 1.22681,-1.33667 1.77613,-3.88184 z" />
          <path
             id="path4262"
             style="font-style:normal;font-variant:normal;font-weight:900;font-stretch:normal;font-size:37.5px;line-height:125%;font-family:'Arial Black';-inkscape-font-specification:'Arial Black, Heavy';text-align:start;writing-mode:lr-tb;baseline-shift:super;text-anchor:start;fill:#004b82;fill-opacity:1;stroke:none"
             d="m 362.66357,908.05249 22.22901,0 0,5.7312 -13.91602,0 0,4.26636 12.90894,0 0,5.47485 -12.90894,0 0,5.29175 14.31885,0 0,6.0791 -22.63184,0 0,-26.84326 z" />
          <path
             id="path4264"
             style="font-style:normal;font-variant:normal;font-weight:900;font-stretch:normal;font-size:37.5px;line-height:125%;font-family:'Arial Black';-inkscape-font-specification:'Arial Black, Heavy';text-align:start;writing-mode:lr-tb;baseline-shift:super;text-anchor:start;fill:#004b82;fill-opacity:1;stroke:none"
             d="m 389.83643,908.05249 7.74536,0 10.10742,14.84985 0,-14.84985 7.8186,0 0,26.84326 -7.8186,0 -10.05249,-14.73999 0,14.73999 -7.80029,0 0,-26.84326 z" />
          <path
             id="path4266"
             style="font-style:normal;font-variant:normal;font-weight:900;font-stretch:normal;font-size:37.5px;line-height:125%;font-family:'Arial Black';-inkscape-font-specification:'Arial Black, Heavy';text-align:start;writing-mode:lr-tb;baseline-shift:super;text-anchor:start;fill:#004b82;fill-opacity:1;stroke:none"
             d="m 419.16992,908.05249 25.21362,0 0,6.62842 -8.45947,0 0,20.21484 -8.29468,0 0,-20.21484 -8.45947,0 0,-6.62842 z" />
          <path
             id="path4268"
             style="font-style:normal;font-variant:normal;font-weight:900;font-stretch:normal;font-size:37.5px;line-height:125%;font-family:'Arial Black';-inkscape-font-specification:'Arial Black, Heavy';text-align:start;writing-mode:lr-tb;baseline-shift:super;text-anchor:start;fill:#004b82;fill-opacity:1;stroke:none"
             d="m 448.26538,934.89575 0,-26.84326 13.82446,0 q 3.84522,0 5.87769,0.65918 2.03247,0.65918 3.27759,2.45361 1.24511,1.77613 1.24511,4.3396 0,2.23389 -0.95214,3.86353 -0.95215,1.61133 -2.61841,2.61841 -1.06201,0.64087 -2.91138,1.06201 1.48316,0.49438 2.16065,0.98877 0.45776,0.32959 1.31835,1.40991 0.87891,1.08032 1.17188,1.66626 l 4.01001,7.78198 -9.375,0 -4.43115,-8.20312 q -0.84229,-1.59302 -1.50147,-2.06909 -0.89721,-0.62256 -2.03247,-0.62256 l -0.73242,0 0,10.89477 -8.3313,0 z m 8.3313,-15.96679 3.49731,0 q 0.56763,0 2.19727,-0.36622 0.82397,-0.16479 1.33667,-0.84228 0.53101,-0.67749 0.53101,-1.5564 0,-1.30005 -0.82398,-1.99585 -0.82397,-0.6958 -3.09448,-0.6958 l -3.6438,0 0,5.45655 z" />
          <path
             id="path4270"
             style="font-style:normal;font-variant:normal;font-weight:900;font-stretch:normal;font-size:37.5px;line-height:125%;font-family:'Arial Black';-inkscape-font-specification:'Arial Black, Heavy';text-align:start;writing-mode:lr-tb;baseline-shift:super;text-anchor:start;fill:#004b82;fill-opacity:1;stroke:none"
             d="m 475.60303,921.49243 q 0,-6.57348 3.66211,-10.23559 3.66211,-3.66211 10.19897,-3.66211 6.70166,0 10.32715,3.60717 3.62549,3.58887 3.62549,10.07081 0,4.70581 -1.59302,7.72705 -1.57471,3.00293 -4.57764,4.6875 -2.98462,1.66626 -7.45239,1.66626 -4.54101,0 -7.52563,-1.44654 -2.96631,-1.44653 -4.81568,-4.57763 -1.84936,-3.13111 -1.84936,-7.83692 z m 8.29468,0.0366 q 0,4.06494 1.50146,5.84107 1.51978,1.77612 4.11987,1.77612 2.67334,0 4.13819,-1.7395 1.46484,-1.7395 1.46484,-6.2439 0,-3.79028 -1.53809,-5.52978 -1.51977,-1.75782 -4.13818,-1.75782 -2.50854,0 -4.02832,1.77613 -1.51977,1.77612 -1.51977,5.87768 z" />
          <path
             id="path4272"
             style="font-style:normal;font-variant:normal;font-weight:900;font-stretch:normal;font-size:37.5px;line-height:125%;font-family:'Arial Black';-inkscape-font-specification:'Arial Black, Heavy';text-align:start;writing-mode:lr-tb;baseline-shift:super;text-anchor:start;fill:#004b82;fill-opacity:1;stroke:none"
             d="m 520.55542,908.05249 12.323,0 q 3.6438,0 5.87768,0.98877 2.2522,0.98877 3.71704,2.83813 1.46485,1.84937 2.12403,4.30298 0.65918,2.45362 0.65918,5.2002 0,4.30298 -0.98877,6.68335 -0.97046,2.36206 -2.70996,3.97339 -1.7395,1.59301 -3.73535,2.12402 -2.72828,0.73242 -4.94385,0.73242 l -12.323,0 0,-26.84326 z m 8.29468,6.0791 0,14.66675 2.03247,0 q 2.6001,0 3.69873,-0.56763 1.09863,-0.58593 1.72119,-2.01416 0.62256,-1.44653 0.62256,-4.66919 0,-4.26635 -1.3916,-5.84106 -1.3916,-1.57471 -4.61426,-1.57471 l -2.06909,0 z" />
          <path
             id="path4274"
             style="font-style:normal;font-variant:normal;font-weight:900;font-stretch:normal;font-size:37.5px;line-height:125%;font-family:'Arial Black';-inkscape-font-specification:'Arial Black, Heavy';text-align:start;writing-mode:lr-tb;baseline-shift:super;text-anchor:start;fill:#004b82;fill-opacity:1;stroke:none"
             d="m 549.57764,908.05249 22.229,0 0,5.7312 -13.91602,0 0,4.26636 12.90894,0 0,5.47485 -12.90894,0 0,5.29175 14.31885,0 0,6.0791 -22.63183,0 0,-26.84326 z" />
          <path
             id="path4276"
             style="font-style:normal;font-variant:normal;font-weight:900;font-stretch:normal;font-size:37.5px;line-height:125%;font-family:'Arial Black';-inkscape-font-specification:'Arial Black, Heavy';text-align:start;writing-mode:lr-tb;baseline-shift:super;text-anchor:start;fill:#004b82;fill-opacity:1;stroke:none"
             d="m 331.64551,954.92749 25.21362,0 0,6.62842 -8.45947,0 0,20.21484 -8.29468,0 0,-20.21484 -8.45947,0 0,-6.62842 z" />
          <path
             id="path4278"
             style="font-style:normal;font-variant:normal;font-weight:900;font-stretch:normal;font-size:37.5px;line-height:125%;font-family:'Arial Black';-inkscape-font-specification:'Arial Black, Heavy';text-align:start;writing-mode:lr-tb;baseline-shift:super;text-anchor:start;fill:#004b82;fill-opacity:1;stroke:none"
             d="m 360.61279,954.92749 22.22901,0 0,5.7312 -13.91602,0 0,4.26636 12.90894,0 0,5.47485 -12.90894,0 0,5.29175 14.31885,0 0,6.0791 -22.63184,0 0,-26.84326 z" />
          <path
             id="path4280"
             style="font-style:normal;font-variant:normal;font-weight:900;font-stretch:normal;font-size:37.5px;line-height:125%;font-family:'Arial Black';-inkscape-font-specification:'Arial Black, Heavy';text-align:start;writing-mode:lr-tb;baseline-shift:super;text-anchor:start;fill:#004b82;fill-opacity:1;stroke:none"
             d="M 405.60181,970.80273 412.87109,973 q -0.73242,3.05786 -2.30713,5.10864 -1.5747,2.05078 -3.91845,3.09448 -2.32544,1.04371 -5.93262,1.04371 -4.37622,0 -7.15942,-1.26343 -2.7649,-1.28174 -4.77906,-4.48609 -2.01416,-3.20434 -2.01416,-8.20312 0,-6.66504 3.53394,-10.2356 3.55225,-3.58886 10.03418,-3.58886 5.07202,0 7.96509,2.05078 2.91137,2.05078 4.32129,6.29883 l -7.32422,1.62963 q -0.38452,-1.2268 -0.80567,-1.79443 -0.6958,-0.95215 -1.70288,-1.46484 -1.00708,-0.5127 -2.25219,-0.5127 -2.81983,0 -4.32129,2.27051 -1.13526,1.68457 -1.13526,5.29175 0,4.46777 1.35498,6.13403 1.35498,1.64795 3.8086,1.64795 2.38037,0 3.58886,-1.33667 1.22681,-1.33667 1.77613,-3.88184 z" />
          <path
             id="path4282"
             style="font-style:normal;font-variant:normal;font-weight:900;font-stretch:normal;font-size:37.5px;line-height:125%;font-family:'Arial Black';-inkscape-font-specification:'Arial Black, Heavy';text-align:start;writing-mode:lr-tb;baseline-shift:super;text-anchor:start;fill:#004b82;fill-opacity:1;stroke:none"
             d="m 416.93604,954.92749 7.74536,0 10.10742,14.84985 0,-14.84985 7.8186,0 0,26.84326 -7.8186,0 -10.05249,-14.73999 0,14.73999 -7.80029,0 0,-26.84326 z" />
          <path
             id="path4284"
             style="font-style:normal;font-variant:normal;font-weight:900;font-stretch:normal;font-size:37.5px;line-height:125%;font-family:'Arial Black';-inkscape-font-specification:'Arial Black, Heavy';text-align:start;writing-mode:lr-tb;baseline-shift:super;text-anchor:start;fill:#004b82;fill-opacity:1;stroke:none"
             d="m 447.11182,968.36743 q 0,-6.57348 3.66211,-10.23559 3.66211,-3.66211 10.19897,-3.66211 6.70166,0 10.32715,3.60717 3.62549,3.58887 3.62549,10.07081 0,4.70581 -1.59302,7.72705 -1.57471,3.00293 -4.57764,4.6875 -2.98462,1.66626 -7.45239,1.66626 -4.54102,0 -7.52563,-1.44654 -2.96631,-1.44653 -4.81568,-4.57763 -1.84936,-3.13111 -1.84936,-7.83692 z m 8.29467,0.0366 q 0,4.06494 1.50147,5.84107 1.51977,1.77612 4.11987,1.77612 2.67334,0 4.13819,-1.7395 1.46484,-1.7395 1.46484,-6.2439 0,-3.79028 -1.53809,-5.52978 -1.51977,-1.75782 -4.13818,-1.75782 -2.50855,0 -4.02832,1.77613 -1.51978,1.77612 -1.51978,5.87768 z" />
          <path
             id="path4286"
             style="font-style:normal;font-variant:normal;font-weight:900;font-stretch:normal;font-size:37.5px;line-height:125%;font-family:'Arial Black';-inkscape-font-specification:'Arial Black, Heavy';text-align:start;writing-mode:lr-tb;baseline-shift:super;text-anchor:start;fill:#004b82;fill-opacity:1;stroke:none"
             d="m 479.42993,954.92749 8.29468,0 0,20.23315 12.94556,0 0,6.61011 -21.24024,0 0,-26.84326 z" />
          <path
             id="path4288"
             style="font-style:normal;font-variant:normal;font-weight:900;font-stretch:normal;font-size:37.5px;line-height:125%;font-family:'Arial Black';-inkscape-font-specification:'Arial Black, Heavy';text-align:start;writing-mode:lr-tb;baseline-shift:super;text-anchor:start;fill:#004b82;fill-opacity:1;stroke:none"
             d="m 502.77588,968.36743 q 0,-6.57348 3.66211,-10.23559 3.66211,-3.66211 10.19897,-3.66211 6.70166,0 10.32715,3.60717 3.62549,3.58887 3.62549,10.07081 0,4.70581 -1.59302,7.72705 -1.57471,3.00293 -4.57763,4.6875 -2.98462,1.66626 -7.4524,1.66626 -4.54101,0 -7.52563,-1.44654 -2.96631,-1.44653 -4.81568,-4.57763 -1.84936,-3.13111 -1.84936,-7.83692 z m 8.29468,0.0366 q 0,4.06494 1.50146,5.84107 1.51978,1.77612 4.11987,1.77612 2.67334,0 4.13819,-1.7395 1.46484,-1.7395 1.46484,-6.2439 0,-3.79028 -1.53808,-5.52978 -1.51978,-1.75782 -4.13819,-1.75782 -2.50854,0 -4.02832,1.77613 -1.51977,1.77612 -1.51977,5.87768 z" />
          <path
             id="path4290"
             style="font-style:normal;font-variant:normal;font-weight:900;font-stretch:normal;font-size:37.5px;line-height:125%;font-family:'Arial Black';-inkscape-font-specification:'Arial Black, Heavy';text-align:start;writing-mode:lr-tb;baseline-shift:super;text-anchor:start;fill:#004b82;fill-opacity:1;stroke:none"
             d="m 548.58887,972.04785 0,-5.58472 12.81738,0 0,11.4441 q -3.68042,2.50854 -6.51855,3.42407 -2.81983,0.89722 -6.70166,0.89722 -4.77906,0 -7.8003,-1.62964 -3.00293,-1.62964 -4.66919,-4.8523 -1.64795,-3.22265 -1.64795,-7.39746 0,-4.39453 1.81275,-7.6355 1.81274,-3.25927 5.31006,-4.94384 2.72827,-1.30005 7.34253,-1.30005 4.44946,0 6.64672,0.80566 2.21558,0.80566 3.66211,2.50855 1.46485,1.68457 2.19727,4.28466 l -8.00171,1.42823 q -0.49438,-1.51978 -1.68457,-2.32544 -1.17188,-0.80567 -3.00293,-0.80567 -2.72827,0 -4.35791,1.9043 -1.61133,1.88599 -1.61133,5.98755 0,4.35791 1.62964,6.22558 1.64795,1.86768 4.57764,1.86768 1.3916,0 2.65503,-0.40283 1.26342,-0.40283 2.89306,-1.37329 l 0,-2.52686 -5.54809,0 z" />
          <path
             id="path4292"
             style="font-style:normal;font-variant:normal;font-weight:900;font-stretch:normal;font-size:37.5px;line-height:125%;font-family:'Arial Black';-inkscape-font-specification:'Arial Black, Heavy';text-align:start;writing-mode:lr-tb;baseline-shift:super;text-anchor:start;fill:#004b82;fill-opacity:1;stroke:none"
             d="m 566.698,954.92749 8.31299,0 0,26.84326 -8.31299,0 0,-26.84326 z" />
          <path
             id="path4294"
             style="font-style:normal;font-variant:normal;font-weight:900;font-stretch:normal;font-size:37.5px;line-height:125%;font-family:'Arial Black';-inkscape-font-specification:'Arial Black, Heavy';text-align:start;writing-mode:lr-tb;baseline-shift:super;text-anchor:start;fill:#004b82;fill-opacity:1;stroke:none"
             d="m 597.45972,977.3396 -9.44825,0 -1.30004,4.43115 -8.47779,0 10.08911,-26.84326 9.04541,0 10.08912,26.84326 -8.6792,0 -1.31836,-4.43115 z m -1.73951,-5.80444 -2.9663,-9.64966 -2.948,9.64966 5.9143,0 z" />
          <path
             id="path4296"
             style="font-style:normal;font-variant:normal;font-weight:900;font-stretch:normal;font-size:37.5px;line-height:125%;font-family:'Arial Black';-inkscape-font-specification:'Arial Black, Heavy';text-align:start;writing-mode:lr-tb;baseline-shift:super;text-anchor:start;fill:#004b82;fill-opacity:1;stroke:none"
             d="m 622.72827,954.92749 12.323,0 q 3.6438,0 5.87769,0.98877 2.25219,0.98877 3.71704,2.83813 1.46484,1.84937 2.12402,4.30298 0.65918,2.45362 0.65918,5.2002 0,4.30298 -0.98877,6.68335 -0.97046,2.36206 -2.70996,3.97339 -1.7395,1.59301 -3.73535,2.12402 -2.72827,0.73242 -4.94385,0.73242 l -12.323,0 0,-26.84326 z m 8.29468,6.0791 0,14.66675 2.03247,0 q 2.6001,0 3.69873,-0.56763 1.09863,-0.58593 1.72119,-2.01416 0.62256,-1.44653 0.62256,-4.66919 0,-4.26635 -1.3916,-5.84106 -1.3916,-1.57471 -4.61426,-1.57471 l -2.06909,0 z" />
          <path
             id="path4298"
             style="font-style:normal;font-variant:normal;font-weight:900;font-stretch:normal;font-size:37.5px;line-height:125%;font-family:'Arial Black';-inkscape-font-specification:'Arial Black, Heavy';text-align:start;writing-mode:lr-tb;baseline-shift:super;text-anchor:start;fill:#004b82;fill-opacity:1;stroke:none"
             d="m 666.67358,977.3396 -9.44824,0 -1.30005,4.43115 -8.47778,0 10.08911,-26.84326 9.04541,0 10.08911,26.84326 -8.6792,0 -1.31836,-4.43115 z m -1.7395,-5.80444 -2.96631,-9.64966 -2.94799,9.64966 5.9143,0 z" />
          <path
             id="path4300"
             style="font-style:normal;font-variant:normal;font-weight:900;font-stretch:normal;font-size:37.5px;line-height:125%;font-family:'Arial Black';-inkscape-font-specification:'Arial Black, Heavy';text-align:start;writing-mode:lr-tb;baseline-shift:super;text-anchor:start;fill:#004b82;fill-opacity:1;stroke:none"
             d="m 333.86108,1001.8025 8.31299,0 0,26.8433 -8.31299,0 0,-26.8433 z" />
          <path
             id="path4302"
             style="font-style:normal;font-variant:normal;font-weight:900;font-stretch:normal;font-size:37.5px;line-height:125%;font-family:'Arial Black';-inkscape-font-specification:'Arial Black, Heavy';text-align:start;writing-mode:lr-tb;baseline-shift:super;text-anchor:start;fill:#004b82;fill-opacity:1;stroke:none"
             d="m 348.16162,1001.8025 7.74536,0 10.10742,14.8498 0,-14.8498 7.81861,0 0,26.8433 -7.81861,0 -10.05249,-14.74 0,14.74 -7.80029,0 0,-26.8433 z" />
          <path
             id="path4304"
             style="font-style:normal;font-variant:normal;font-weight:900;font-stretch:normal;font-size:37.5px;line-height:125%;font-family:'Arial Black';-inkscape-font-specification:'Arial Black, Heavy';text-align:start;writing-mode:lr-tb;baseline-shift:super;text-anchor:start;fill:#004b82;fill-opacity:1;stroke:none"
             d="m 379.41772,1001.8025 20.50782,0 0,5.7678 -12.17652,0 0,4.6875 10.40039,0 0,5.4199 -10.40039,0 0,10.9681 -8.3313,0 0,-26.8433 z" />
          <path
             id="path4306"
             style="font-style:normal;font-variant:normal;font-weight:900;font-stretch:normal;font-size:37.5px;line-height:125%;font-family:'Arial Black';-inkscape-font-specification:'Arial Black, Heavy';text-align:start;writing-mode:lr-tb;baseline-shift:super;text-anchor:start;fill:#004b82;fill-opacity:1;stroke:none"
             d="m 403.38623,1015.2424 q 0,-6.5735 3.66211,-10.2356 3.66211,-3.6621 10.19897,-3.6621 6.70166,0 10.32715,3.6072 3.62549,3.5889 3.62549,10.0708 0,4.7058 -1.59302,7.7271 -1.5747,3.0029 -4.57763,4.6875 -2.98462,1.6662 -7.4524,1.6662 -4.54101,0 -7.52563,-1.4465 -2.96631,-1.4466 -4.81567,-4.5777 -1.84937,-3.1311 -1.84937,-7.8369 z m 8.29468,0.037 q 0,4.0649 1.50146,5.841 1.51978,1.7761 4.11988,1.7761 2.67334,0 4.13818,-1.7395 1.46484,-1.7395 1.46484,-6.2439 0,-3.7902 -1.53808,-5.5297 -1.51978,-1.7579 -4.13819,-1.7579 -2.50854,0 -4.02832,1.7762 -1.51977,1.7761 -1.51977,5.8777 z" />
          <path
             id="path4308"
             style="font-style:normal;font-variant:normal;font-weight:900;font-stretch:normal;font-size:37.5px;line-height:125%;font-family:'Arial Black';-inkscape-font-specification:'Arial Black, Heavy';text-align:start;writing-mode:lr-tb;baseline-shift:super;text-anchor:start;fill:#004b82;fill-opacity:1;stroke:none"
             d="m 435.81421,1028.6458 0,-26.8433 13.82446,0 q 3.84522,0 5.87769,0.6592 2.03247,0.6591 3.27759,2.4536 1.24511,1.7761 1.24511,4.3396 0,2.2339 -0.95215,3.8635 -0.95214,1.6113 -2.6184,2.6184 -1.06202,0.6409 -2.91138,1.062 1.48315,0.4944 2.16064,0.9888 0.45777,0.3296 1.31836,1.4099 0.87891,1.0803 1.17188,1.6663 l 4.01001,7.782 -9.375,0 -4.43115,-8.2032 q -0.84229,-1.593 -1.50147,-2.0691 -0.89722,-0.6225 -2.03247,-0.6225 l -0.73242,0 0,10.8948 -8.3313,0 z m 8.3313,-15.9668 3.49731,0 q 0.56763,0 2.19727,-0.3663 0.82397,-0.1648 1.33667,-0.8422 0.531,-0.6775 0.531,-1.5564 0,-1.3001 -0.82397,-1.9959 -0.82398,-0.6958 -3.09448,-0.6958 l -3.6438,0 0,5.4566 z" />
          <path
             id="path4310"
             style="font-style:normal;font-variant:normal;font-weight:900;font-stretch:normal;font-size:37.5px;line-height:125%;font-family:'Arial Black';-inkscape-font-specification:'Arial Black, Heavy';text-align:start;writing-mode:lr-tb;baseline-shift:super;text-anchor:start;fill:#004b82;fill-opacity:1;stroke:none"
             d="m 464.76318,1001.8025 10.91309,0 4.21143,16.333 4.19311,-16.333 10.87647,0 0,26.8433 -6.77491,0 0,-20.4712 -5.25512,20.4712 -6.13404,0 -5.23681,-20.4712 0,20.4712 -6.79322,0 0,-26.8433 z" />
          <path
             id="path4312"
             style="font-style:normal;font-variant:normal;font-weight:900;font-stretch:normal;font-size:37.5px;line-height:125%;font-family:'Arial Black';-inkscape-font-specification:'Arial Black, Heavy';text-align:start;writing-mode:lr-tb;baseline-shift:super;text-anchor:start;fill:#004b82;fill-opacity:1;stroke:none"
             d="m 516.74683,1024.2146 -9.44825,0 -1.30004,4.4312 -8.47779,0 10.08911,-26.8433 9.04541,0 10.08911,26.8433 -8.67919,0 -1.31836,-4.4312 z m -1.73951,-5.8044 -2.9663,-9.6497 -2.948,9.6497 5.9143,0 z" />
          <path
             id="path4314"
             style="font-style:normal;font-variant:normal;font-weight:900;font-stretch:normal;font-size:37.5px;line-height:125%;font-family:'Arial Black';-inkscape-font-specification:'Arial Black, Heavy';text-align:start;writing-mode:lr-tb;baseline-shift:super;text-anchor:start;fill:#004b82;fill-opacity:1;stroke:none"
             d="m 547.2522,1017.6777 7.26928,2.1973 q -0.73242,3.0579 -2.30712,5.1086 -1.57471,2.0508 -3.91846,3.0945 -2.32544,1.0437 -5.93262,1.0437 -4.37622,0 -7.15942,-1.2634 -2.7649,-1.2817 -4.77906,-4.4861 -2.01416,-3.2043 -2.01416,-8.2031 0,-6.665 3.53394,-10.2356 3.55225,-3.5889 10.03418,-3.5889 5.07202,0 7.96509,2.0508 2.91137,2.0508 4.32129,6.2988 l -7.32422,1.6297 q -0.38452,-1.2268 -0.80567,-1.7945 -0.6958,-0.9521 -1.70288,-1.4648 -1.00708,-0.5127 -2.25219,-0.5127 -2.81983,0 -4.32129,2.2705 -1.13526,1.6846 -1.13526,5.2918 0,4.4677 1.35498,6.134 1.35498,1.6479 3.8086,1.6479 2.38037,0 3.58886,-1.3366 1.22681,-1.3367 1.77613,-3.8819 z m -10.14405,13.9893 0.54932,-2.1607 q 1.72119,-0.4211 3.22266,-0.4211 3.1311,0 4.32129,1.062 1.19018,1.062 1.19018,2.5086 0,0.8789 -0.54931,1.8127 -0.53101,0.9338 -1.92261,1.5015 -1.3916,0.5676 -3.69873,0.5676 -2.08741,0 -4.90723,-0.4761 l 0,-2.2522 q 1.9043,0.3662 4.04663,0.3662 1.57471,0 2.12402,-0.4211 0.56763,-0.4211 0.56763,-1.0986 0,-0.531 -0.45776,-0.9156 -0.45777,-0.3845 -1.42822,-0.3845 -1.30005,0 -3.05787,0.3113 z" />
          <path
             id="path4316"
             style="font-style:normal;font-variant:normal;font-weight:900;font-stretch:normal;font-size:37.5px;line-height:125%;font-family:'Arial Black';-inkscape-font-specification:'Arial Black, Heavy';text-align:start;writing-mode:lr-tb;baseline-shift:super;text-anchor:start;fill:#004b82;fill-opacity:1;stroke:none"
             d="m 575.04761,1024.2146 -9.44824,0 -1.30005,4.4312 -8.47779,0 10.08911,-26.8433 9.04541,0 10.08912,26.8433 -8.6792,0 -1.31836,-4.4312 z m -1.7395,-5.8044 -2.96631,-9.6497 -2.948,9.6497 5.91431,0 z m 0.76904,-23.25444 2.89306,0 q 0.0183,0.47608 0.0183,0.82398 0,2.03247 -1.0254,3.14941 -1.02539,1.11695 -2.63671,1.11695 -1.17188,0 -3.55225,-0.97047 -1.44653,-0.58593 -1.99585,-0.58593 -0.53101,0 -0.82397,0.32959 -0.29297,0.32959 -0.31128,1.17191 l -2.85645,0 q -0.0183,-0.43949 -0.0183,-0.76908 0,-1.95923 1.08032,-3.11279 1.08033,-1.15357 2.56348,-1.15357 0.64087,0 1.2085,0.14649 0.56762,0.14648 2.0874,0.78735 1.53808,0.64087 2.23388,0.64087 0.49439,0 0.78736,-0.32959 0.31128,-0.3479 0.3479,-1.24512 z" />
          <path
             id="path4318"
             style="font-style:normal;font-variant:normal;font-weight:900;font-stretch:normal;font-size:37.5px;line-height:125%;font-family:'Arial Black';-inkscape-font-specification:'Arial Black, Heavy';text-align:start;writing-mode:lr-tb;baseline-shift:super;text-anchor:start;fill:#004b82;fill-opacity:1;stroke:none"
             d="m 586.63818,1015.2424 q 0,-6.5735 3.66211,-10.2356 3.66211,-3.6621 10.19898,-3.6621 6.70166,0 10.32715,3.6072 3.62548,3.5889 3.62548,10.0708 0,4.7058 -1.59301,7.7271 -1.57471,3.0029 -4.57764,4.6875 -2.98462,1.6662 -7.45239,1.6662 -4.54102,0 -7.52564,-1.4465 -2.96631,-1.4466 -4.81567,-4.5777 -1.84937,-3.1311 -1.84937,-7.8369 z m 8.29468,0.037 q 0,4.0649 1.50147,5.841 1.51977,1.7761 4.11987,1.7761 2.67334,0 4.13818,-1.7395 1.46485,-1.7395 1.46485,-6.2439 0,-3.7902 -1.53809,-5.5297 -1.51977,-1.7579 -4.13818,-1.7579 -2.50855,0 -4.02832,1.7762 -1.51978,1.7761 -1.51978,5.8777 z" />
        </g>
      </g>
    </g>
  </g>
</svg>
